<?xml version="1.0" encoding="utf-8"?>
<!-- Generator: Adobe Illustrator 23.0.1, SVG Export Plug-In . SVG Version: 6.00 Build 0)  -->
<svg version="1.1" id="Layer_1" xmlns="http://www.w3.org/2000/svg" xmlns:xlink="http://www.w3.org/1999/xlink" x="0px" y="0px"
	 viewBox="-84 80 1280 1280" enable-background="new 0 0 1080 1080" xml:space="preserve" anchor="middle">
<defs>
	<path id="curve"  d="M540,15c70.9,0,139.6,13.9,204.4,41.3c62.5,26.4,118.7,64.3,166.9,112.5c48.2,48.2,86.1,104.4,112.5,166.9
		c27.4,64.7,41.3,133.5,41.3,204.4s-13.9,139.6-41.3,204.4c-26.4,62.5-64.3,118.7-112.5,166.9c-48.2,48.2-104.4,86.1-166.9,112.5
		c-64.7,27.4-133.5,41.3-204.4,41.3s-139.6-13.9-204.4-41.3c-62.5-26.4-118.7-64.3-166.9-112.5C120.6,863,82.7,806.9,56.3,744.4
		C28.9,679.6,15,610.9,15,540s13.9-139.6,41.3-204.4c26.4-62.5,64.3-118.7,112.5-166.9C217,120.6,273.1,82.7,335.6,56.3
		C400.4,28.9,469.1,15,540,15 M540,14C249.5,14,14,249.5,14,540s235.5,526,526,526s526-235.5,526-526S830.5,14,540,14L540,14z"
		/>
</defs>
<text  font-size="6rem" font-family="Lighthaus"  fill="#FFACB9" transform= "rotate(-99)" transform-origin= "center center"> 
						  <textPath xlink:href="#curve">
							The face of success since the 60s
						  </textPath>
						</text>
</svg>
